<mxfile host="app.diagrams.net" modified="2023-02-25T06:56:54.016Z" agent="5.0 (Windows NT 10.0; Win64; x64) AppleWebKit/537.36 (KHTML, like Gecko) Chrome/110.0.0.0 Safari/537.36" etag="dsctVPNkr_cluKOx1nqD" version="20.8.23" type="github">
  <diagram name="Page-1" id="QUCpw9mx353YiS1C0nCv">
    <mxGraphModel dx="1755" dy="1587" grid="0" gridSize="10" guides="1" tooltips="1" connect="1" arrows="1" fold="1" page="0" pageScale="1" pageWidth="850" pageHeight="1100" math="0" shadow="0">
      <root>
        <mxCell id="0" />
        <mxCell id="1" parent="0" />
        <mxCell id="Y77-N1zCJx3Q2Sx2Zkoe-1" value="" style="whiteSpace=wrap;html=1;aspect=fixed;fontSize=16;" parent="1" vertex="1">
          <mxGeometry x="-190" y="-641" width="672" height="672" as="geometry" />
        </mxCell>
        <mxCell id="Y77-N1zCJx3Q2Sx2Zkoe-2" value="TRAVEL WEBSITE" style="rounded=1;whiteSpace=wrap;html=1;fontSize=16;" parent="1" vertex="1">
          <mxGeometry x="-180" y="-632" width="247" height="22" as="geometry" />
        </mxCell>
        <mxCell id="Y77-N1zCJx3Q2Sx2Zkoe-3" value="Customer" style="shape=umlActor;verticalLabelPosition=bottom;verticalAlign=top;html=1;outlineConnect=0;fontSize=16;" parent="1" vertex="1">
          <mxGeometry x="-346" y="-564" width="30" height="60" as="geometry" />
        </mxCell>
        <mxCell id="Y77-N1zCJx3Q2Sx2Zkoe-4" value="System Administrator" style="shape=umlActor;verticalLabelPosition=bottom;verticalAlign=top;html=1;outlineConnect=0;fontSize=16;" parent="1" vertex="1">
          <mxGeometry x="560" y="-544" width="30" height="60" as="geometry" />
        </mxCell>
        <mxCell id="Y77-N1zCJx3Q2Sx2Zkoe-5" value="Travel Agent" style="shape=umlActor;verticalLabelPosition=bottom;verticalAlign=top;html=1;outlineConnect=0;fontSize=16;" parent="1" vertex="1">
          <mxGeometry x="574" y="-272" width="30" height="60" as="geometry" />
        </mxCell>
        <mxCell id="Y77-N1zCJx3Q2Sx2Zkoe-7" value="Third Party Services" style="shape=umlActor;verticalLabelPosition=bottom;verticalAlign=top;html=1;outlineConnect=0;fontSize=16;" parent="1" vertex="1">
          <mxGeometry x="-298" y="-282" width="30" height="60" as="geometry" />
        </mxCell>
        <mxCell id="Y77-N1zCJx3Q2Sx2Zkoe-9" value="Search and view available flights" style="ellipse;whiteSpace=wrap;html=1;fontSize=16;" parent="1" vertex="1">
          <mxGeometry x="-171" y="-576" width="120" height="80" as="geometry" />
        </mxCell>
        <mxCell id="Y77-N1zCJx3Q2Sx2Zkoe-10" value="Search and view available hotels" style="ellipse;whiteSpace=wrap;html=1;fontSize=16;" parent="1" vertex="1">
          <mxGeometry x="78" y="-406" width="120" height="80" as="geometry" />
        </mxCell>
        <mxCell id="Y77-N1zCJx3Q2Sx2Zkoe-11" value="Search and view available car rentals" style="ellipse;whiteSpace=wrap;html=1;fontSize=16;" parent="1" vertex="1">
          <mxGeometry x="266" y="-343" width="120" height="80" as="geometry" />
        </mxCell>
        <mxCell id="Y77-N1zCJx3Q2Sx2Zkoe-12" value="Select and book hotels" style="ellipse;whiteSpace=wrap;html=1;fontSize=16;" parent="1" vertex="1">
          <mxGeometry x="254" y="-493" width="120" height="80" as="geometry" />
        </mxCell>
        <mxCell id="Y77-N1zCJx3Q2Sx2Zkoe-13" value="Modify hotel booking" style="ellipse;whiteSpace=wrap;html=1;fontSize=16;" parent="1" vertex="1">
          <mxGeometry x="-173" y="-308" width="120" height="80" as="geometry" />
        </mxCell>
        <mxCell id="Y77-N1zCJx3Q2Sx2Zkoe-14" value="Modify flight booking" style="ellipse;whiteSpace=wrap;html=1;fontSize=16;" parent="1" vertex="1">
          <mxGeometry x="-98" y="-440" width="120" height="80" as="geometry" />
        </mxCell>
        <mxCell id="Y77-N1zCJx3Q2Sx2Zkoe-15" value="Cancel flight booking" style="ellipse;whiteSpace=wrap;html=1;fontSize=16;" parent="1" vertex="1">
          <mxGeometry x="334" y="-608" width="120" height="80" as="geometry" />
        </mxCell>
        <mxCell id="Y77-N1zCJx3Q2Sx2Zkoe-16" value="Select and book flights" style="ellipse;whiteSpace=wrap;html=1;fontSize=16;" parent="1" vertex="1">
          <mxGeometry x="94" y="-544" width="120" height="80" as="geometry" />
        </mxCell>
        <mxCell id="Y77-N1zCJx3Q2Sx2Zkoe-17" value="Cancel hotel booking" style="ellipse;whiteSpace=wrap;html=1;fontSize=16;" parent="1" vertex="1">
          <mxGeometry x="6" y="-308" width="120" height="80" as="geometry" />
        </mxCell>
        <mxCell id="Y77-N1zCJx3Q2Sx2Zkoe-18" value="Select and book car rentals" style="ellipse;whiteSpace=wrap;html=1;fontSize=16;" parent="1" vertex="1">
          <mxGeometry x="28" y="-65" width="120" height="80" as="geometry" />
        </mxCell>
        <mxCell id="Y77-N1zCJx3Q2Sx2Zkoe-19" value="Make payment" style="ellipse;whiteSpace=wrap;html=1;fontSize=16;" parent="1" vertex="1">
          <mxGeometry x="131" y="-209" width="120" height="80" as="geometry" />
        </mxCell>
        <mxCell id="Y77-N1zCJx3Q2Sx2Zkoe-20" value="View itinerary" style="ellipse;whiteSpace=wrap;html=1;fontSize=16;" parent="1" vertex="1">
          <mxGeometry x="-173" y="-67" width="120" height="80" as="geometry" />
        </mxCell>
        <mxCell id="Y77-N1zCJx3Q2Sx2Zkoe-21" value="&lt;br&gt;&lt;span style=&quot;font-family: SÃ¶hne, ui-sans-serif, system-ui, -apple-system, &amp;quot;Segoe UI&amp;quot;, Roboto, Ubuntu, Cantarell, &amp;quot;Noto Sans&amp;quot;, sans-serif, &amp;quot;Helvetica Neue&amp;quot;, Arial, &amp;quot;Apple Color Emoji&amp;quot;, &amp;quot;Segoe UI Emoji&amp;quot;, &amp;quot;Segoe UI Symbol&amp;quot;, &amp;quot;Noto Color Emoji&amp;quot;; font-size: 16px; font-style: normal; font-variant-ligatures: normal; font-variant-caps: normal; font-weight: 400; letter-spacing: normal; orphans: 2; text-align: left; text-indent: 0px; text-transform: none; widows: 2; word-spacing: 0px; -webkit-text-stroke-width: 0px; text-decoration-thickness: initial; text-decoration-style: initial; text-decoration-color: initial; float: none; display: inline !important;&quot;&gt;Cancel car rental booking&lt;/span&gt;" style="ellipse;whiteSpace=wrap;html=1;fontSize=16;" parent="1" vertex="1">
          <mxGeometry x="-105" y="-190" width="120" height="80" as="geometry" />
        </mxCell>
        <mxCell id="Y77-N1zCJx3Q2Sx2Zkoe-22" value="Modify car rental booking" style="ellipse;whiteSpace=wrap;html=1;fontSize=16;" parent="1" vertex="1">
          <mxGeometry x="357" y="-256" width="120" height="80" as="geometry" />
        </mxCell>
        <mxCell id="Y77-N1zCJx3Q2Sx2Zkoe-23" value="NAME- JAHNAVI SIRIPURAPU&lt;br&gt;ROLL.NO- SE20UCSE178" style="rounded=1;whiteSpace=wrap;html=1;labelBackgroundColor=none;fontSize=16;fontColor=#000000;align=left;" parent="1" vertex="1">
          <mxGeometry x="247" y="-42" width="230" height="66" as="geometry" />
        </mxCell>
        <mxCell id="Y77-N1zCJx3Q2Sx2Zkoe-25" value="" style="endArrow=none;html=1;rounded=0;fontSize=12;fontColor=#000000;startSize=8;endSize=8;curved=1;exitX=0.993;exitY=0.611;exitDx=0;exitDy=0;exitPerimeter=0;" parent="1" source="Y77-N1zCJx3Q2Sx2Zkoe-9" target="Y77-N1zCJx3Q2Sx2Zkoe-16" edge="1">
          <mxGeometry width="50" height="50" relative="1" as="geometry">
            <mxPoint x="57" y="-361" as="sourcePoint" />
            <mxPoint x="107" y="-411" as="targetPoint" />
          </mxGeometry>
        </mxCell>
        <mxCell id="Y77-N1zCJx3Q2Sx2Zkoe-26" value="" style="endArrow=none;html=1;rounded=0;fontSize=12;fontColor=#000000;startSize=8;endSize=8;curved=1;" parent="1" source="Y77-N1zCJx3Q2Sx2Zkoe-16" target="Y77-N1zCJx3Q2Sx2Zkoe-15" edge="1">
          <mxGeometry width="50" height="50" relative="1" as="geometry">
            <mxPoint x="57" y="-361" as="sourcePoint" />
            <mxPoint x="107" y="-411" as="targetPoint" />
          </mxGeometry>
        </mxCell>
        <mxCell id="Y77-N1zCJx3Q2Sx2Zkoe-27" value="" style="endArrow=none;html=1;rounded=0;fontSize=12;fontColor=#000000;startSize=8;endSize=8;curved=1;entryX=0;entryY=1;entryDx=0;entryDy=0;exitX=1;exitY=0.5;exitDx=0;exitDy=0;" parent="1" source="Y77-N1zCJx3Q2Sx2Zkoe-14" target="Y77-N1zCJx3Q2Sx2Zkoe-16" edge="1">
          <mxGeometry width="50" height="50" relative="1" as="geometry">
            <mxPoint x="57" y="-361" as="sourcePoint" />
            <mxPoint x="107" y="-411" as="targetPoint" />
          </mxGeometry>
        </mxCell>
        <mxCell id="Y77-N1zCJx3Q2Sx2Zkoe-28" value="" style="endArrow=none;html=1;rounded=0;fontSize=12;fontColor=#000000;startSize=8;endSize=8;curved=1;entryX=0.009;entryY=0.625;entryDx=0;entryDy=0;entryPerimeter=0;" parent="1" source="Y77-N1zCJx3Q2Sx2Zkoe-10" target="Y77-N1zCJx3Q2Sx2Zkoe-12" edge="1">
          <mxGeometry width="50" height="50" relative="1" as="geometry">
            <mxPoint x="57" y="-226" as="sourcePoint" />
            <mxPoint x="107" y="-276" as="targetPoint" />
          </mxGeometry>
        </mxCell>
        <mxCell id="Y77-N1zCJx3Q2Sx2Zkoe-29" value="" style="endArrow=none;html=1;rounded=0;fontSize=12;fontColor=#000000;startSize=8;endSize=8;curved=1;entryX=0.5;entryY=1;entryDx=0;entryDy=0;exitX=1;exitY=0;exitDx=0;exitDy=0;" parent="1" source="Y77-N1zCJx3Q2Sx2Zkoe-17" target="Y77-N1zCJx3Q2Sx2Zkoe-12" edge="1">
          <mxGeometry width="50" height="50" relative="1" as="geometry">
            <mxPoint x="57" y="-226" as="sourcePoint" />
            <mxPoint x="107" y="-276" as="targetPoint" />
          </mxGeometry>
        </mxCell>
        <mxCell id="Y77-N1zCJx3Q2Sx2Zkoe-30" value="" style="endArrow=none;html=1;rounded=0;fontSize=12;fontColor=#000000;startSize=8;endSize=8;curved=1;entryX=0.612;entryY=0.983;entryDx=0;entryDy=0;entryPerimeter=0;exitX=1;exitY=1;exitDx=0;exitDy=0;" parent="1" source="Y77-N1zCJx3Q2Sx2Zkoe-13" target="Y77-N1zCJx3Q2Sx2Zkoe-12" edge="1">
          <mxGeometry width="50" height="50" relative="1" as="geometry">
            <mxPoint x="57" y="-226" as="sourcePoint" />
            <mxPoint x="107" y="-276" as="targetPoint" />
            <Array as="points">
              <mxPoint x="12" y="-112" />
            </Array>
          </mxGeometry>
        </mxCell>
        <mxCell id="Y77-N1zCJx3Q2Sx2Zkoe-31" value="" style="endArrow=none;html=1;rounded=0;fontSize=12;fontColor=#000000;startSize=8;endSize=8;curved=1;" parent="1" source="Y77-N1zCJx3Q2Sx2Zkoe-18" target="Y77-N1zCJx3Q2Sx2Zkoe-11" edge="1">
          <mxGeometry width="50" height="50" relative="1" as="geometry">
            <mxPoint x="57" y="-226" as="sourcePoint" />
            <mxPoint x="107" y="-276" as="targetPoint" />
            <Array as="points">
              <mxPoint x="305" y="-119" />
            </Array>
          </mxGeometry>
        </mxCell>
        <mxCell id="Y77-N1zCJx3Q2Sx2Zkoe-32" value="" style="endArrow=none;html=1;rounded=0;fontSize=12;fontColor=#000000;startSize=8;endSize=8;curved=1;exitX=1;exitY=1;exitDx=0;exitDy=0;" parent="1" source="Y77-N1zCJx3Q2Sx2Zkoe-21" target="Y77-N1zCJx3Q2Sx2Zkoe-18" edge="1">
          <mxGeometry width="50" height="50" relative="1" as="geometry">
            <mxPoint x="57" y="-226" as="sourcePoint" />
            <mxPoint x="107" y="-276" as="targetPoint" />
          </mxGeometry>
        </mxCell>
        <mxCell id="Y77-N1zCJx3Q2Sx2Zkoe-33" value="" style="endArrow=none;html=1;rounded=0;fontSize=12;fontColor=#000000;startSize=8;endSize=8;curved=1;entryX=0.285;entryY=0.967;entryDx=0;entryDy=0;entryPerimeter=0;" parent="1" source="Y77-N1zCJx3Q2Sx2Zkoe-18" target="Y77-N1zCJx3Q2Sx2Zkoe-22" edge="1">
          <mxGeometry width="50" height="50" relative="1" as="geometry">
            <mxPoint x="57" y="-226" as="sourcePoint" />
            <mxPoint x="107" y="-276" as="targetPoint" />
            <Array as="points">
              <mxPoint x="325" y="-78" />
            </Array>
          </mxGeometry>
        </mxCell>
        <mxCell id="Y77-N1zCJx3Q2Sx2Zkoe-34" value="" style="endArrow=none;html=1;rounded=0;fontSize=12;fontColor=#000000;startSize=8;endSize=8;curved=1;exitX=1;exitY=0.5;exitDx=0;exitDy=0;" parent="1" source="Y77-N1zCJx3Q2Sx2Zkoe-21" target="Y77-N1zCJx3Q2Sx2Zkoe-19" edge="1">
          <mxGeometry width="50" height="50" relative="1" as="geometry">
            <mxPoint x="57" y="-226" as="sourcePoint" />
            <mxPoint x="107" y="-276" as="targetPoint" />
          </mxGeometry>
        </mxCell>
        <mxCell id="Y77-N1zCJx3Q2Sx2Zkoe-35" value="" style="endArrow=none;html=1;rounded=0;fontSize=12;fontColor=#000000;startSize=8;endSize=8;curved=1;entryX=0;entryY=0;entryDx=0;entryDy=0;exitX=0.916;exitY=0.788;exitDx=0;exitDy=0;exitPerimeter=0;" parent="1" source="Y77-N1zCJx3Q2Sx2Zkoe-17" target="Y77-N1zCJx3Q2Sx2Zkoe-19" edge="1">
          <mxGeometry width="50" height="50" relative="1" as="geometry">
            <mxPoint x="57" y="-226" as="sourcePoint" />
            <mxPoint x="107" y="-276" as="targetPoint" />
          </mxGeometry>
        </mxCell>
        <mxCell id="Y77-N1zCJx3Q2Sx2Zkoe-36" value="" style="endArrow=none;html=1;rounded=0;fontSize=12;fontColor=#000000;startSize=8;endSize=8;curved=1;exitX=1;exitY=0;exitDx=0;exitDy=0;" parent="1" source="Y77-N1zCJx3Q2Sx2Zkoe-19" target="Y77-N1zCJx3Q2Sx2Zkoe-22" edge="1">
          <mxGeometry width="50" height="50" relative="1" as="geometry">
            <mxPoint x="57" y="-226" as="sourcePoint" />
            <mxPoint x="107" y="-276" as="targetPoint" />
            <Array as="points">
              <mxPoint x="322" y="-162" />
            </Array>
          </mxGeometry>
        </mxCell>
        <mxCell id="Y77-N1zCJx3Q2Sx2Zkoe-37" value="" style="endArrow=none;html=1;rounded=0;fontSize=12;fontColor=#000000;startSize=8;endSize=8;curved=1;entryX=0.984;entryY=0.653;entryDx=0;entryDy=0;entryPerimeter=0;" parent="1" source="Y77-N1zCJx3Q2Sx2Zkoe-19" target="Y77-N1zCJx3Q2Sx2Zkoe-13" edge="1">
          <mxGeometry width="50" height="50" relative="1" as="geometry">
            <mxPoint x="57" y="-226" as="sourcePoint" />
            <mxPoint x="107" y="-276" as="targetPoint" />
            <Array as="points">
              <mxPoint x="27" y="-186" />
            </Array>
          </mxGeometry>
        </mxCell>
        <mxCell id="Y77-N1zCJx3Q2Sx2Zkoe-38" value="" style="endArrow=none;html=1;rounded=0;fontSize=12;fontColor=#000000;startSize=8;endSize=8;curved=1;entryX=0;entryY=1;entryDx=0;entryDy=0;" parent="1" source="Y77-N1zCJx3Q2Sx2Zkoe-19" target="Y77-N1zCJx3Q2Sx2Zkoe-12" edge="1">
          <mxGeometry width="50" height="50" relative="1" as="geometry">
            <mxPoint x="57" y="-226" as="sourcePoint" />
            <mxPoint x="107" y="-276" as="targetPoint" />
            <Array as="points">
              <mxPoint x="187" y="-277" />
            </Array>
          </mxGeometry>
        </mxCell>
        <mxCell id="Y77-N1zCJx3Q2Sx2Zkoe-39" value="" style="endArrow=none;html=1;rounded=0;fontSize=12;fontColor=#000000;startSize=8;endSize=8;curved=1;" parent="1" source="Y77-N1zCJx3Q2Sx2Zkoe-19" target="Y77-N1zCJx3Q2Sx2Zkoe-15" edge="1">
          <mxGeometry width="50" height="50" relative="1" as="geometry">
            <mxPoint x="57" y="-226" as="sourcePoint" />
            <mxPoint x="107" y="-276" as="targetPoint" />
            <Array as="points">
              <mxPoint x="490" y="-274" />
            </Array>
          </mxGeometry>
        </mxCell>
        <mxCell id="Y77-N1zCJx3Q2Sx2Zkoe-40" value="" style="endArrow=none;html=1;rounded=0;fontSize=12;fontColor=#000000;startSize=8;endSize=8;curved=1;" parent="1" source="Y77-N1zCJx3Q2Sx2Zkoe-19" target="Y77-N1zCJx3Q2Sx2Zkoe-14" edge="1">
          <mxGeometry width="50" height="50" relative="1" as="geometry">
            <mxPoint x="57" y="-226" as="sourcePoint" />
            <mxPoint x="107" y="-276" as="targetPoint" />
            <Array as="points">
              <mxPoint x="131" y="-307" />
            </Array>
          </mxGeometry>
        </mxCell>
        <mxCell id="Y77-N1zCJx3Q2Sx2Zkoe-41" value="" style="endArrow=none;html=1;rounded=0;fontSize=12;fontColor=#000000;startSize=8;endSize=8;curved=1;" parent="1" source="Y77-N1zCJx3Q2Sx2Zkoe-18" target="Y77-N1zCJx3Q2Sx2Zkoe-19" edge="1">
          <mxGeometry width="50" height="50" relative="1" as="geometry">
            <mxPoint x="57" y="-226" as="sourcePoint" />
            <mxPoint x="107" y="-276" as="targetPoint" />
          </mxGeometry>
        </mxCell>
        <mxCell id="Y77-N1zCJx3Q2Sx2Zkoe-42" value="" style="endArrow=none;html=1;rounded=0;fontSize=12;fontColor=#000000;startSize=8;endSize=8;curved=1;entryX=0.5;entryY=1;entryDx=0;entryDy=0;" parent="1" source="Y77-N1zCJx3Q2Sx2Zkoe-19" target="Y77-N1zCJx3Q2Sx2Zkoe-16" edge="1">
          <mxGeometry width="50" height="50" relative="1" as="geometry">
            <mxPoint x="57" y="-226" as="sourcePoint" />
            <mxPoint x="107" y="-276" as="targetPoint" />
            <Array as="points">
              <mxPoint x="272" y="-371" />
            </Array>
          </mxGeometry>
        </mxCell>
        <mxCell id="Y77-N1zCJx3Q2Sx2Zkoe-43" value="" style="endArrow=none;html=1;rounded=0;fontSize=12;fontColor=#000000;startSize=8;endSize=8;curved=1;entryX=0.75;entryY=0.1;entryDx=0;entryDy=0;entryPerimeter=0;" parent="1" source="Y77-N1zCJx3Q2Sx2Zkoe-9" target="Y77-N1zCJx3Q2Sx2Zkoe-3" edge="1">
          <mxGeometry width="50" height="50" relative="1" as="geometry">
            <mxPoint x="-7" y="-302" as="sourcePoint" />
            <mxPoint x="43" y="-352" as="targetPoint" />
          </mxGeometry>
        </mxCell>
        <mxCell id="Y77-N1zCJx3Q2Sx2Zkoe-44" value="" style="endArrow=none;html=1;rounded=0;fontSize=12;fontColor=#000000;startSize=8;endSize=8;curved=1;entryX=0.015;entryY=0.739;entryDx=0;entryDy=0;entryPerimeter=0;exitX=0.75;exitY=0.1;exitDx=0;exitDy=0;exitPerimeter=0;" parent="1" source="Y77-N1zCJx3Q2Sx2Zkoe-3" target="Y77-N1zCJx3Q2Sx2Zkoe-16" edge="1">
          <mxGeometry width="50" height="50" relative="1" as="geometry">
            <mxPoint x="-7" y="-302" as="sourcePoint" />
            <mxPoint x="43" y="-352" as="targetPoint" />
            <Array as="points">
              <mxPoint x="-94" y="-438" />
            </Array>
          </mxGeometry>
        </mxCell>
        <mxCell id="Y77-N1zCJx3Q2Sx2Zkoe-45" value="" style="endArrow=none;html=1;rounded=0;fontSize=12;fontColor=#000000;startSize=8;endSize=8;curved=1;entryX=0;entryY=0.5;entryDx=0;entryDy=0;exitX=0.75;exitY=0.1;exitDx=0;exitDy=0;exitPerimeter=0;" parent="1" source="Y77-N1zCJx3Q2Sx2Zkoe-3" target="Y77-N1zCJx3Q2Sx2Zkoe-15" edge="1">
          <mxGeometry width="50" height="50" relative="1" as="geometry">
            <mxPoint x="-12" y="-302" as="sourcePoint" />
            <mxPoint x="38" y="-352" as="targetPoint" />
            <Array as="points">
              <mxPoint x="7" y="-599" />
            </Array>
          </mxGeometry>
        </mxCell>
        <mxCell id="Y77-N1zCJx3Q2Sx2Zkoe-46" value="" style="endArrow=none;html=1;rounded=0;fontSize=12;fontColor=#000000;startSize=8;endSize=8;curved=1;entryX=0;entryY=0.5;entryDx=0;entryDy=0;exitX=0.75;exitY=0.1;exitDx=0;exitDy=0;exitPerimeter=0;" parent="1" source="Y77-N1zCJx3Q2Sx2Zkoe-3" target="Y77-N1zCJx3Q2Sx2Zkoe-14" edge="1">
          <mxGeometry width="50" height="50" relative="1" as="geometry">
            <mxPoint x="-252" y="-508" as="sourcePoint" />
            <mxPoint x="38" y="-352" as="targetPoint" />
            <Array as="points">
              <mxPoint x="-214" y="-400" />
            </Array>
          </mxGeometry>
        </mxCell>
        <mxCell id="Y77-N1zCJx3Q2Sx2Zkoe-47" value="" style="endArrow=none;html=1;rounded=0;fontSize=12;fontColor=#000000;startSize=8;endSize=8;curved=1;entryX=0.75;entryY=0.1;entryDx=0;entryDy=0;entryPerimeter=0;" parent="1" source="Y77-N1zCJx3Q2Sx2Zkoe-20" target="Y77-N1zCJx3Q2Sx2Zkoe-3" edge="1">
          <mxGeometry width="50" height="50" relative="1" as="geometry">
            <mxPoint x="-12" y="-302" as="sourcePoint" />
            <mxPoint x="-254" y="-455" as="targetPoint" />
            <Array as="points">
              <mxPoint x="-176" y="-347" />
            </Array>
          </mxGeometry>
        </mxCell>
        <mxCell id="Y77-N1zCJx3Q2Sx2Zkoe-48" value="" style="endArrow=none;html=1;rounded=0;fontSize=12;fontColor=#000000;startSize=8;endSize=8;curved=1;exitX=0.75;exitY=0.1;exitDx=0;exitDy=0;exitPerimeter=0;" parent="1" source="Y77-N1zCJx3Q2Sx2Zkoe-3" target="Y77-N1zCJx3Q2Sx2Zkoe-19" edge="1">
          <mxGeometry width="50" height="50" relative="1" as="geometry">
            <mxPoint x="-250" y="-461" as="sourcePoint" />
            <mxPoint x="38" y="-352" as="targetPoint" />
            <Array as="points">
              <mxPoint x="2" y="-220" />
            </Array>
          </mxGeometry>
        </mxCell>
        <mxCell id="Y77-N1zCJx3Q2Sx2Zkoe-50" value="" style="endArrow=none;html=1;rounded=0;fontSize=12;fontColor=#000000;startSize=8;endSize=8;curved=1;entryX=0.25;entryY=0.1;entryDx=0;entryDy=0;entryPerimeter=0;" parent="1" source="Y77-N1zCJx3Q2Sx2Zkoe-19" target="Y77-N1zCJx3Q2Sx2Zkoe-4" edge="1">
          <mxGeometry width="50" height="50" relative="1" as="geometry">
            <mxPoint x="124" y="-237" as="sourcePoint" />
            <mxPoint x="174" y="-287" as="targetPoint" />
            <Array as="points">
              <mxPoint x="157" y="-270" />
            </Array>
          </mxGeometry>
        </mxCell>
        <mxCell id="Y77-N1zCJx3Q2Sx2Zkoe-52" value="" style="endArrow=none;html=1;rounded=0;fontSize=12;fontColor=#000000;startSize=8;endSize=8;curved=1;entryX=0.25;entryY=0.1;entryDx=0;entryDy=0;entryPerimeter=0;" parent="1" source="Y77-N1zCJx3Q2Sx2Zkoe-9" target="Y77-N1zCJx3Q2Sx2Zkoe-5" edge="1">
          <mxGeometry width="50" height="50" relative="1" as="geometry">
            <mxPoint x="124" y="-237" as="sourcePoint" />
            <mxPoint x="174" y="-287" as="targetPoint" />
            <Array as="points">
              <mxPoint x="452" y="-631" />
            </Array>
          </mxGeometry>
        </mxCell>
        <mxCell id="Y77-N1zCJx3Q2Sx2Zkoe-53" value="" style="endArrow=none;html=1;rounded=0;fontSize=12;fontColor=#000000;startSize=8;endSize=8;curved=1;exitX=0.75;exitY=0.1;exitDx=0;exitDy=0;exitPerimeter=0;" parent="1" source="Y77-N1zCJx3Q2Sx2Zkoe-3" target="Y77-N1zCJx3Q2Sx2Zkoe-13" edge="1">
          <mxGeometry width="50" height="50" relative="1" as="geometry">
            <mxPoint x="124" y="-445" as="sourcePoint" />
            <mxPoint x="174" y="-495" as="targetPoint" />
          </mxGeometry>
        </mxCell>
        <mxCell id="Y77-N1zCJx3Q2Sx2Zkoe-54" value="" style="endArrow=none;html=1;rounded=0;fontSize=12;fontColor=#000000;startSize=8;endSize=8;curved=1;entryX=1;entryY=0.3333333333333333;entryDx=0;entryDy=0;entryPerimeter=0;" parent="1" source="Y77-N1zCJx3Q2Sx2Zkoe-10" target="Y77-N1zCJx3Q2Sx2Zkoe-3" edge="1">
          <mxGeometry width="50" height="50" relative="1" as="geometry">
            <mxPoint x="124" y="-445" as="sourcePoint" />
            <mxPoint x="174" y="-495" as="targetPoint" />
            <Array as="points">
              <mxPoint x="31" y="-435" />
            </Array>
          </mxGeometry>
        </mxCell>
        <mxCell id="Y77-N1zCJx3Q2Sx2Zkoe-55" value="" style="endArrow=none;html=1;rounded=0;fontSize=12;fontColor=#000000;startSize=8;endSize=8;curved=1;entryX=0.75;entryY=0.1;entryDx=0;entryDy=0;entryPerimeter=0;" parent="1" source="Y77-N1zCJx3Q2Sx2Zkoe-17" target="Y77-N1zCJx3Q2Sx2Zkoe-3" edge="1">
          <mxGeometry width="50" height="50" relative="1" as="geometry">
            <mxPoint x="124" y="-445" as="sourcePoint" />
            <mxPoint x="174" y="-495" as="targetPoint" />
            <Array as="points">
              <mxPoint x="-125" y="-384" />
            </Array>
          </mxGeometry>
        </mxCell>
        <mxCell id="Y77-N1zCJx3Q2Sx2Zkoe-56" value="" style="endArrow=none;html=1;rounded=0;fontSize=12;fontColor=#000000;startSize=8;endSize=8;curved=1;exitX=0.25;exitY=0.1;exitDx=0;exitDy=0;exitPerimeter=0;" parent="1" source="Y77-N1zCJx3Q2Sx2Zkoe-3" target="Y77-N1zCJx3Q2Sx2Zkoe-12" edge="1">
          <mxGeometry width="50" height="50" relative="1" as="geometry">
            <mxPoint x="124" y="-445" as="sourcePoint" />
            <mxPoint x="174" y="-495" as="targetPoint" />
            <Array as="points">
              <mxPoint x="57" y="-423" />
            </Array>
          </mxGeometry>
        </mxCell>
        <mxCell id="Y77-N1zCJx3Q2Sx2Zkoe-57" value="" style="endArrow=none;html=1;rounded=0;fontSize=12;fontColor=#000000;startSize=8;endSize=8;curved=1;entryX=0;entryY=1;entryDx=0;entryDy=0;exitX=0.75;exitY=0.1;exitDx=0;exitDy=0;exitPerimeter=0;" parent="1" source="Y77-N1zCJx3Q2Sx2Zkoe-7" target="Y77-N1zCJx3Q2Sx2Zkoe-11" edge="1">
          <mxGeometry width="50" height="50" relative="1" as="geometry">
            <mxPoint x="178" y="-304" as="sourcePoint" />
            <mxPoint x="228" y="-354" as="targetPoint" />
            <Array as="points">
              <mxPoint x="56" y="-109" />
            </Array>
          </mxGeometry>
        </mxCell>
        <mxCell id="Y77-N1zCJx3Q2Sx2Zkoe-58" value="" style="endArrow=none;html=1;rounded=0;fontSize=12;fontColor=#000000;startSize=8;endSize=8;curved=1;entryX=1;entryY=1;entryDx=0;entryDy=0;exitX=0.5;exitY=0;exitDx=0;exitDy=0;exitPerimeter=0;" parent="1" source="Y77-N1zCJx3Q2Sx2Zkoe-7" target="Y77-N1zCJx3Q2Sx2Zkoe-9" edge="1">
          <mxGeometry width="50" height="50" relative="1" as="geometry">
            <mxPoint x="178" y="-304" as="sourcePoint" />
            <mxPoint x="228" y="-354" as="targetPoint" />
            <Array as="points">
              <mxPoint x="-322" y="-372" />
            </Array>
          </mxGeometry>
        </mxCell>
        <mxCell id="Y77-N1zCJx3Q2Sx2Zkoe-59" value="" style="endArrow=none;html=1;rounded=0;fontSize=12;fontColor=#000000;startSize=8;endSize=8;curved=1;entryX=0.043;entryY=0.71;entryDx=0;entryDy=0;entryPerimeter=0;exitX=0.25;exitY=0.1;exitDx=0;exitDy=0;exitPerimeter=0;" parent="1" source="Y77-N1zCJx3Q2Sx2Zkoe-7" target="Y77-N1zCJx3Q2Sx2Zkoe-10" edge="1">
          <mxGeometry width="50" height="50" relative="1" as="geometry">
            <mxPoint x="178" y="-304" as="sourcePoint" />
            <mxPoint x="228" y="-354" as="targetPoint" />
            <Array as="points">
              <mxPoint x="-123" y="-373" />
            </Array>
          </mxGeometry>
        </mxCell>
        <mxCell id="Y77-N1zCJx3Q2Sx2Zkoe-60" value="" style="endArrow=none;html=1;rounded=0;fontSize=12;fontColor=#000000;startSize=8;endSize=8;curved=1;exitX=1;exitY=1;exitDx=0;exitDy=0;exitPerimeter=0;" parent="1" source="Y77-N1zCJx3Q2Sx2Zkoe-3" target="Y77-N1zCJx3Q2Sx2Zkoe-11" edge="1">
          <mxGeometry width="50" height="50" relative="1" as="geometry">
            <mxPoint x="-325" y="-502" as="sourcePoint" />
            <mxPoint x="228" y="-354" as="targetPoint" />
            <Array as="points">
              <mxPoint x="-113" y="-300" />
            </Array>
          </mxGeometry>
        </mxCell>
        <mxCell id="Y77-N1zCJx3Q2Sx2Zkoe-61" value="" style="endArrow=none;html=1;rounded=0;fontSize=12;fontColor=#000000;startSize=8;endSize=8;curved=1;" parent="1" target="Y77-N1zCJx3Q2Sx2Zkoe-18" edge="1">
          <mxGeometry width="50" height="50" relative="1" as="geometry">
            <mxPoint x="-313" y="-501" as="sourcePoint" />
            <mxPoint x="111" y="-360" as="targetPoint" />
            <Array as="points">
              <mxPoint x="-218" y="-195" />
              <mxPoint x="-108" y="-99" />
            </Array>
          </mxGeometry>
        </mxCell>
        <mxCell id="Y77-N1zCJx3Q2Sx2Zkoe-62" value="" style="endArrow=none;html=1;rounded=0;fontSize=12;fontColor=#000000;startSize=8;endSize=8;curved=1;exitX=0.5;exitY=0.5;exitDx=0;exitDy=0;exitPerimeter=0;" parent="1" source="Y77-N1zCJx3Q2Sx2Zkoe-3" target="Y77-N1zCJx3Q2Sx2Zkoe-21" edge="1">
          <mxGeometry width="50" height="50" relative="1" as="geometry">
            <mxPoint x="61" y="-310" as="sourcePoint" />
            <mxPoint x="111" y="-360" as="targetPoint" />
            <Array as="points">
              <mxPoint x="19" y="-313" />
            </Array>
          </mxGeometry>
        </mxCell>
        <mxCell id="Y77-N1zCJx3Q2Sx2Zkoe-63" value="" style="endArrow=none;html=1;rounded=0;fontSize=12;fontColor=#000000;startSize=8;endSize=8;curved=1;entryX=0.5;entryY=0;entryDx=0;entryDy=0;exitX=0.75;exitY=0.1;exitDx=0;exitDy=0;exitPerimeter=0;" parent="1" source="Y77-N1zCJx3Q2Sx2Zkoe-3" target="Y77-N1zCJx3Q2Sx2Zkoe-22" edge="1">
          <mxGeometry width="50" height="50" relative="1" as="geometry">
            <mxPoint x="61" y="-310" as="sourcePoint" />
            <mxPoint x="111" y="-360" as="targetPoint" />
            <Array as="points">
              <mxPoint x="197" y="-392" />
              <mxPoint x="477" y="-352" />
            </Array>
          </mxGeometry>
        </mxCell>
      </root>
    </mxGraphModel>
  </diagram>
</mxfile>
